<svg xmlns="http://www.w3.org/2000/svg" viewBox="0 0 401.09 210.04"><defs><style>.cls-1{fill:#d3dcb6;}.cls-2,.cls-5{fill:#45a6af;}.cls-10,.cls-2,.cls-5,.cls-6,.cls-7,.cls-8,.cls-9{stroke:#7c434f;stroke-miterlimit:10;}.cls-2{stroke-width:2.18px;}.cls-3{fill:#f1f8d1;}.cls-4{fill:#52c9bb;}.cls-10,.cls-5,.cls-6,.cls-7,.cls-8,.cls-9{stroke-width:1.93px;}.cls-6{fill:#377993;}.cls-7{fill:#eb5c48;}.cls-8{fill:#42ba46;}.cls-9{fill:#f7b54a;}.cls-10{fill:#8d615f;}</style></defs><title>controller</title><g id="Layer_2" data-name="Layer 2"><g id="OBJECTS"><path class="cls-1" d="M374.28,53a16.64,16.64,0,0,0-7.84-18.36l-25.91-15a16.63,16.63,0,0,0-20.71,3.31,100,100,0,0,0-18.51-1.72H109.52A99.88,99.88,0,0,0,91,22.94,16.64,16.64,0,0,0,70.3,19.63l-25.91,15A16.63,16.63,0,0,0,36.55,53,99.44,99.44,0,0,0,9.74,121v30.62A58.42,58.42,0,0,0,68.15,210h0a58.44,58.44,0,0,0,38.32-14.32l16.6-14.42a33.81,33.81,0,0,1,22.19-8.3H265.57a33.85,33.85,0,0,1,22.19,8.3l16.59,14.42A58.46,58.46,0,0,0,342.67,210h0a58.43,58.43,0,0,0,58.42-58.42V121A99.44,99.44,0,0,0,374.28,53Z"/><path class="cls-2" d="M321.52,8.56h29.92A16.63,16.63,0,0,1,368.08,25.2V42a0,0,0,0,1,0,0H304.89a0,0,0,0,1,0,0V25.2A16.63,16.63,0,0,1,321.52,8.56Z" transform="translate(57.71 -164.86) rotate(30)"/><path class="cls-3" d="M305.73,22.61c1.14-2.57,2.4-5.08,3.71-7.55.64-1.25,1.33-2.46,2-3.7A14.25,14.25,0,0,1,314,7.85a13.08,13.08,0,0,1,7.88-3.59,12,12,0,0,1,8.15,2.21,14,14,0,0,0-8-1.08,13.29,13.29,0,0,0-9.44,6.66c-.73,1.19-1.45,2.4-2.2,3.57C308.93,18,307.39,20.34,305.73,22.61Z"/><path class="cls-2" d="M25.46,8.56H88.64a0,0,0,0,1,0,0V25.34A16.63,16.63,0,0,1,72,42H42.09A16.63,16.63,0,0,1,25.46,25.34V8.56a0,0,0,0,1,0,0Z" transform="translate(119.09 18.62) rotate(150)"/><path class="cls-3" d="M63.47,6.47a12,12,0,0,1,8.15-2.21,13.08,13.08,0,0,1,7.87,3.59,14,14,0,0,1,2.61,3.51c.67,1.24,1.36,2.45,2,3.7,1.3,2.47,2.56,5,3.7,7.55-1.66-2.27-3.19-4.62-4.69-7-.75-1.17-1.46-2.38-2.2-3.57A13,13,0,0,0,78.49,8.9a13.29,13.29,0,0,0-7-3.52A14.11,14.11,0,0,0,63.47,6.47Z"/><path class="cls-2" d="M334,193.73a58.36,58.36,0,0,1-38.31-14.32L279.11,165a33.81,33.81,0,0,0-22.19-8.3H136.61a33.83,33.83,0,0,0-22.19,8.3L97.83,179.41a58.41,58.41,0,0,1-38.32,14.32h0A58.41,58.41,0,0,1,1.09,135.31V104.69A99.78,99.78,0,0,1,100.87,4.91H292.66a99.78,99.78,0,0,1,99.78,99.78v30.62A58.41,58.41,0,0,1,334,193.73Z"/><path class="cls-4" d="M334,187.2a51.87,51.87,0,0,1-34-12.73L283.4,160.06a40.33,40.33,0,0,0-26.48-9.9H136.61a40.35,40.35,0,0,0-26.48,9.9L93.54,174.47A51.87,51.87,0,0,1,7.63,135.31V104.69a93.34,93.34,0,0,1,93.24-93.24H292.66a93.34,93.34,0,0,1,93.25,93.24v30.62A52,52,0,0,1,334,187.2Z"/><path class="cls-3" d="M283.4,160.06a40.56,40.56,0,0,0-23.67-9.53c-1.44-.09-2.87-.07-4.32-.05l-4.35,0-34.74.27-69.48.36-8.68,0a42.45,42.45,0,0,0-8.46.65,40.07,40.07,0,0,0-15.51,6.43,39.61,39.61,0,0,0-3.34,2.58l-3.29,2.84L101,169.34,94.41,175a53.62,53.62,0,0,1-7.12,5.23,52.2,52.2,0,0,1-33.84,7.22A51.24,51.24,0,0,1,22.84,172a53.63,53.63,0,0,0,14.23,9.72,52.73,52.73,0,0,0,16.52,4.53,51.24,51.24,0,0,0,17-1.06,52.52,52.52,0,0,0,15.69-6.54,51.11,51.11,0,0,0,6.83-5.09l6.53-5.72,6.54-5.72,3.27-2.86a41.87,41.87,0,0,1,3.5-2.75,40.53,40.53,0,0,1,16.36-6.73,44.59,44.59,0,0,1,8.83-.62l8.68,0,69.48.36,34.74.27,4.35,0c1.44,0,2.9,0,4.35.14a40.28,40.28,0,0,1,23.64,10.08Z"/><path class="cls-3" d="M378.57,68.43a90,90,0,0,1,6.92,23,91.16,91.16,0,0,1,1.09,12l.16,12q.09,6,.11,12l0,6c0,2,0,4-.14,6.08a52.56,52.56,0,0,1-7.34,23.12,53.22,53.22,0,0,1-17,17.29,51.45,51.45,0,0,1-22.9,7.83A51.31,51.31,0,0,1,305,178.66a51.68,51.68,0,0,1-4.73-3.73l-4.42-4.06a99.14,99.14,0,0,0,9.47,7.31,52.48,52.48,0,0,0,34,7.91,51.27,51.27,0,0,0,38.22-24.59,50.62,50.62,0,0,0,7.23-22.15c.17-2,.18-3.9.18-5.92l0-6c0-4,0-8,.1-12l.14-12a92.84,92.84,0,0,0-.77-11.89A95.36,95.36,0,0,0,378.57,68.43Z"/><path class="cls-3" d="M64.61,18.78a91.24,91.24,0,0,1,36.8-7.94c12.59-.11,25.19-.28,37.78-.33,25.19-.06,50.38-.22,75.57-.11s50.37,0,75.56.28a92.53,92.53,0,0,1,68.25,28.11A94,94,0,0,0,309,13.52a96.71,96.71,0,0,0-18.7-1.31c-25.19.23-50.37.19-75.56.28s-50.38-.05-75.57-.11c-12.59-.05-25.19-.22-37.78-.33A98.72,98.72,0,0,0,82.7,13.58,97.05,97.05,0,0,0,64.61,18.78Z"/><path class="cls-3" d="M11.71,155.49A48.2,48.2,0,0,1,8,145a50.86,50.86,0,0,1-1.22-11.12c-.17-7.38-.22-14.77-.24-22.15,0-3.69,0-7.37.15-11.12A84.45,84.45,0,0,1,8,89.52a83.54,83.54,0,0,1,2.76-10.81A80.63,80.63,0,0,1,15,68.43,109.82,109.82,0,0,0,9.68,89.8a99.71,99.71,0,0,0-.93,10.91c-.12,3.63,0,7.34,0,11,0,7.38-.06,14.77-.24,22.15A57,57,0,0,0,11.71,155.49Z"/><rect class="cls-2" x="140.35" y="127.79" width="13.44" height="7.63" rx="3.81"/><rect class="cls-2" x="239.75" y="127.79" width="13.44" height="7.63" rx="3.81"/><circle class="cls-5" cx="321.33" cy="98.92" r="49.05"/><path class="cls-3" d="M276.15,98.92a48.23,48.23,0,0,1,1.71-13.18,49.12,49.12,0,0,1,5.53-12.17,46,46,0,0,1,20.37-17.06,48,48,0,0,1,13.06-3.37,50.52,50.52,0,0,1,13.5.62,49.63,49.63,0,0,1,12.74,4.52,51.24,51.24,0,0,1,10.89,8,50.74,50.74,0,0,1,8,10.89,49.37,49.37,0,0,1,4.52,12.74,50.42,50.42,0,0,1,.62,13.49,47.77,47.77,0,0,1-3.37,13.06,50,50,0,0,1-7,11.47,50.33,50.33,0,0,1-10,8.91,49.42,49.42,0,0,1-12.16,5.53,48.3,48.3,0,0,1-13.19,1.71,51.8,51.8,0,0,0,6.6-.69l1.63-.28.82-.14.8-.21,3.19-.88a48.7,48.7,0,0,0,11.79-5.83,49.5,49.5,0,0,0,9.61-8.9,48.65,48.65,0,0,0,6.61-11.26l1.09-3.08.27-.77.2-.79.39-1.59.4-1.58c.13-.53.17-1.07.26-1.61.16-1.08.34-2.15.47-3.23a49.19,49.19,0,0,0-.68-13,47.88,47.88,0,0,0-4.43-12.21A45.31,45.31,0,0,0,342.18,59.9,48,48,0,0,0,330,55.48a48.68,48.68,0,0,0-13-.68,49.43,49.43,0,0,0-12.66,3.08,48.62,48.62,0,0,0-11.26,6.6,50.48,50.48,0,0,0-8.9,9.62,48.13,48.13,0,0,0-5.82,11.79l-.88,3.19-.22.8-.14.81-.28,1.63A52,52,0,0,0,276.15,98.92Z"/><circle class="cls-6" cx="296.22" cy="98.92" r="12.74"/><path class="cls-3" d="M285.42,98.92a10.36,10.36,0,0,1,2.81-8,11,11,0,0,1,16,0,10.36,10.36,0,0,1,2.81,8,11.4,11.4,0,0,0-3.52-7.28,10.65,10.65,0,0,0-14.57,0A11.33,11.33,0,0,0,285.42,98.92Z"/><circle class="cls-7" cx="346.44" cy="98.92" r="12.74"/><path class="cls-3" d="M335.63,98.92a11.05,11.05,0,0,1,.31-3.18,11.88,11.88,0,0,1,1.26-3,12.32,12.32,0,0,1,2.13-2.49,12.1,12.1,0,0,1,2.79-1.77,11.41,11.41,0,0,1,3.21-.88,12.9,12.9,0,0,1,3.34.12,12,12,0,0,1,3.16,1.11,12.81,12.81,0,0,1,2.7,2,12.62,12.62,0,0,1,2,2.71,11.76,11.76,0,0,1,1.11,3.16,12.06,12.06,0,0,1,.12,3.34,11.48,11.48,0,0,1-.87,3.21,11.4,11.4,0,0,1-4.26,4.92,12.25,12.25,0,0,1-3,1.26,11.11,11.11,0,0,1-3.19.3,10.91,10.91,0,0,0,9.52-6.86A10.4,10.4,0,0,0,342.5,89.4,10.9,10.9,0,0,0,335.63,98.92Z"/><circle class="cls-8" cx="321.33" cy="124.03" r="12.74"/><path class="cls-3" d="M321.33,113.23a8.54,8.54,0,0,1,4.33.36,9.8,9.8,0,0,1,3.76,2.35,9.94,9.94,0,0,1,2.36,3.77,8.62,8.62,0,0,1,.36,4.32,15.31,15.31,0,0,0-1.29-3.94,12.55,12.55,0,0,0-5.58-5.58A15.3,15.3,0,0,0,321.33,113.23Z"/><circle class="cls-9" cx="321.33" cy="73.82" r="12.74"/><path class="cls-3" d="M310.53,73.82a10.37,10.37,0,0,1,2.81-8,11,11,0,0,1,16,0,10.41,10.41,0,0,1,2.82,8,11.42,11.42,0,0,0-3.53-7.29,10.64,10.64,0,0,0-14.56,0A11.36,11.36,0,0,0,310.53,73.82Z"/><circle class="cls-5" cx="72.2" cy="98.92" r="49.05"/><path class="cls-3" d="M27,98.92a44.53,44.53,0,0,1,3-17.46,45.16,45.16,0,0,1,9.71-15,45.37,45.37,0,0,1,64.93,0,45.13,45.13,0,0,1,9.7,15,44.35,44.35,0,0,1,3,17.46,46,46,0,0,0-13.78-31.4,44.89,44.89,0,0,0-62.8,0A46,46,0,0,0,27,98.92Z"/><path class="cls-10" d="M50,111.66H42.12a5,5,0,0,1-5-5V91.18a5,5,0,0,1,5-5H50A5,5,0,0,1,53.3,87.4l9,7.74a5,5,0,0,1,0,7.57l-9,7.74A5,5,0,0,1,50,111.66Z"/><path class="cls-3" d="M42.12,88.12q3.41-.37,6.8-.5a9.1,9.1,0,0,1,1.81,0,3.77,3.77,0,0,1,1.79.85l2.6,2.2c1.71,1.49,3.41,3,5.06,4.55.41.4.81.76,1.25,1.19a3.33,3.33,0,0,1,.85,1.68A3.14,3.14,0,0,1,61,101.25a3,3,0,0,0,.66-3A2.67,2.67,0,0,0,60.84,97l-1.32-1c-1.78-1.4-3.52-2.86-5.24-4.34L51.72,89.4a2.52,2.52,0,0,0-1.21-.67,12,12,0,0,0-1.59-.11C46.66,88.53,44.39,88.37,42.12,88.12Z"/><path class="cls-10" d="M94.37,86.19h7.91a5,5,0,0,1,5,5v15.48a5,5,0,0,1-5,5H94.37a5,5,0,0,1-3.27-1.21l-9-7.74a5,5,0,0,1,0-7.57l9-7.74A5,5,0,0,1,94.37,86.19Z"/><path class="cls-3" d="M83.39,101.25a3.09,3.09,0,0,1-1.21-2.68,3.26,3.26,0,0,1,.47-1.5,5.74,5.74,0,0,1,1-1.14l4.38-4c.73-.67,1.46-1.34,2.21-2l1.11-1,.55-.49a3.74,3.74,0,0,1,.72-.51,3.62,3.62,0,0,1,1.71-.43h1.48l3,0,3,0a4.84,4.84,0,0,1,1.67.2,3.63,3.63,0,0,1,2.33,2.49,3.74,3.74,0,0,1,.13.88c0,.28,0,.5,0,.76,0,1,0,2-.07,3l-.18,5.94c-.11,2-.17,4-.31,5.93-.15-2-.21-4-.32-5.93l-.18-5.94c0-1-.06-2-.07-3,0-.24,0-.52,0-.72a2.36,2.36,0,0,0-.11-.59,2.42,2.42,0,0,0-.61-1,2.56,2.56,0,0,0-1-.62,3.33,3.33,0,0,0-1.27-.12H94.37a2.54,2.54,0,0,0-1.65.6l-.57.48-1.14,1c-.75.64-1.52,1.27-2.29,1.89L84.1,96.4a6,6,0,0,0-1,.94,3,3,0,0,0,.34,3.91Z"/><path class="cls-10" d="M84.94,121.09V129a5,5,0,0,1-5,5H64.46a5,5,0,0,1-5-5v-7.91a4.94,4.94,0,0,1,1.22-3.26l7.74-9a5,5,0,0,1,7.57,0l7.74,9A5,5,0,0,1,84.94,121.09Z"/><path class="cls-10" d="M59.46,76.76V68.84a5,5,0,0,1,5-5H79.94a5,5,0,0,1,5,5v7.92A5,5,0,0,1,83.73,80L76,89a5,5,0,0,1-7.57,0l-7.74-9A4.94,4.94,0,0,1,59.46,76.76Z"/><path class="cls-3" d="M61.4,76.76c-.15-1.71-.21-3.41-.32-5.12L61,69.08a3.57,3.57,0,0,1,.9-2.68,3.51,3.51,0,0,1,2.66-1.18l2.55,0,5.12,0,5.12,0,2.56,0a3.58,3.58,0,0,1,3.55,3.87l-.11,2.56c-.1,1.71-.17,3.41-.31,5.12-.15-1.71-.21-3.41-.32-5.12l-.11-2.56a2.65,2.65,0,0,0-.78-2,2.59,2.59,0,0,0-1.92-.75l-2.56,0-5.12,0-5.12,0-2.55,0a2.61,2.61,0,0,0-1.93.75,2.65,2.65,0,0,0-.78,2l-.11,2.56C61.6,73.35,61.54,75.05,61.4,76.76Z"/><path class="cls-3" d="M74.52,110.11A83.82,83.82,0,0,1,82.18,118a10.47,10.47,0,0,1,.91,1.16,3.69,3.69,0,0,1,.51,1.55,6,6,0,0,1,0,.75l0,.69c0,.45,0,.91-.06,1.37-.09,1.83-.23,3.66-.5,5.48-.27-1.82-.41-3.65-.51-5.48,0-.46,0-.92-.06-1.37l0-.69a5.08,5.08,0,0,0,0-.62,2.59,2.59,0,0,0-.36-1,11.49,11.49,0,0,0-.82-1A82.89,82.89,0,0,1,74.52,110.11Z"/><path class="cls-7" d="M131.81,66.08c-9.34,0-13.68-3.62-13.68-11.35V37.37c0-7.73,4.34-11.35,13.68-11.35h13.91c1.4,0,2,.61,2,2v6.74c0,1.39-.61,2-2,2H134.15c-2.34,0-3.39.89-3.39,2.78v13.3c0,1.89.83,2.73,2.56,2.73h5.39V46.89c0-1.4.62-2,2-2h8.62c1.39,0,2,.61,2,2V64.08c0,1.39-.61,2-2,2Z"/><path class="cls-3" d="M140.64,46.81c1.45-.17,2.92-.3,4.39-.39s2.94-.16,4.41-.19H150l0,.56q.12,4.35,0,8.7c0,1.45-.1,2.9-.19,4.35s-.22,2.89-.38,4.33h0c-.16-1.45-.29-2.9-.38-4.35s-.15-2.89-.19-4.33q-.12-4.32,0-8.65l.55.55c-1.46,0-2.91-.1-4.37-.19S142.11,47,140.64,46.81Z"/><path class="cls-3" d="M128.84,39.54c.24,2.33.41,4.66.49,7,.06,1.16.08,2.32.11,3.49l0,1.74c0,.59,0,1.18,0,1.69a3.75,3.75,0,0,0,1.23,2.64,4.46,4.46,0,0,0,2.91.9q3.49.12,7,.5c-2.33.25-4.66.41-7,.5A5.3,5.3,0,0,1,130,57a4.93,4.93,0,0,1-1.75-3.46c0-.66,0-1.23,0-1.81l0-1.74c0-1.17.05-2.33.11-3.49Q128.46,43,128.84,39.54Z"/><path class="cls-3" d="M131.81,27.94c1.17-.18,2.34-.3,3.51-.38s2.33-.16,3.5-.19c2.34-.09,4.67-.09,7,0l.56,0v.53c0,1.16-.1,2.32-.19,3.47s-.21,2.3-.39,3.45c-.17-1.16-.29-2.31-.38-3.45s-.15-2.28-.19-3.42l.55.55c-2.33.08-4.65.08-7,0-1.16,0-2.33-.1-3.49-.19S133,28.12,131.81,27.94Z"/><path class="cls-7" d="M167.48,66.08H159.3c-1.39,0-2-.61-2-2V49.39c0-2.23.67-5,2.17-8.9l4.84-12.63A2.63,2.63,0,0,1,167.14,26h15a2.58,2.58,0,0,1,2.78,1.84l4.84,12.63c1.5,3.89,2.17,6.67,2.17,8.9V64.08c0,1.39-.61,2-2,2h-8.4c-1.51,0-2.17-.61-2.17-2V56.29h-9.85v7.79C169.48,65.47,168.87,66.08,167.48,66.08ZM170,46.16h8.73l-2.61-8.45c-.28-.67-.62-1-1.06-1h-1.39c-.45,0-.78.28-1.06,1Z"/><path class="cls-3" d="M166.1,28.54a1.19,1.19,0,0,1,.16-.39.6.6,0,0,1,.38-.22,5.1,5.1,0,0,1,.86-.08l1.7-.08,3.4-.14,6.8-.18,1.7,0,.85,0a2.46,2.46,0,0,1,1.1.16,1.17,1.17,0,0,1,.52.63l.15.4.32.79.63,1.58,2.46,6.33c.78,2.12,1.65,4.21,2.35,6.41a25.65,25.65,0,0,1,.83,3.38,12.8,12.8,0,0,1,.19,1.76c0,.61,0,1.16,0,1.73l-.17,6.8c-.11,2.27-.17,4.54-.32,6.8h0c-.14-2.27-.2-4.54-.31-6.81l-.17-6.8a16.82,16.82,0,0,0-.29-3.28,24.09,24.09,0,0,0-.88-3.2c-.7-2.11-1.58-4.21-2.39-6.34l-2.4-6.36-.59-1.6-.29-.8-.14-.39c0-.13,0,0,0,0a1.8,1.8,0,0,0-.57-.05h-.85l-1.7-.05-6.8-.18-3.4-.14L167.5,28a6,6,0,0,0-.84,0,.57.57,0,0,0-.36.16A1.07,1.07,0,0,0,166.1,28.54Z"/><path class="cls-3" d="M167.56,54.37a17.19,17.19,0,0,1,.64,4.9,22.22,22.22,0,0,1-.14,2.45,13.06,13.06,0,0,1-.5,2.44,12.21,12.21,0,0,1-.5-2.46,22.5,22.5,0,0,1-.14-2.45A16.71,16.71,0,0,1,167.56,54.37Z"/><path class="cls-3" d="M175.1,34.84l-1.31.12a2.83,2.83,0,0,0-1.19.34,3.42,3.42,0,0,0-1.4,1.9v0c-.47,1.86-1,3.72-1.51,5.57-.25.93-.54,1.85-.82,2.77s-.55,1.84-.85,2.76l-.6-.82c2.32,0,4.65.06,7,.16,1.17,0,2.33.11,3.49.19s2.32.15,3.49.28c-1.17.14-2.33.2-3.49.29s-2.32.15-3.49.19c-2.32.1-4.65.14-7,.15h-.84l.24-.82c.27-.93.56-1.84.85-2.76s.58-1.84.89-2.75c.61-1.83,1.23-3.65,1.9-5.45v0a4.94,4.94,0,0,1,.77-1.19,3.28,3.28,0,0,1,1.17-.81,3.08,3.08,0,0,1,1.37-.19C174.22,34.74,174.66,34.8,175.1,34.84Z"/><path class="cls-7" d="M200.74,66.08c-1.39,0-2-.61-2-2V28c0-1.39.61-2,2-2h9a2.64,2.64,0,0,1,2.56,1.67l5,9.07c.39.67.56,1,1,1h.5c.45,0,.61-.28,1-1l5-9.07A2.63,2.63,0,0,1,227.28,26h9c1.39,0,2,.61,2,2V64.08c0,1.39-.61,2-2,2h-8.57c-1.45,0-2-.61-2-2V44.49l-3.29,6.07a2.91,2.91,0,0,1-2.94,1.78h-2.23a2.92,2.92,0,0,1-3-1.78L211,44.49V64.08c0,1.39-.61,2-2,2Z"/><path class="cls-3" d="M226.41,28.61a2.66,2.66,0,0,1,.33-.56.84.84,0,0,1,.64-.19l1.29-.07,2.57-.13c1.72-.08,3.44-.11,5.16-.17h.41l0,.45C237,34,237,40,237,46.05c0,3-.09,6-.2,9.06s-.21,6-.41,9h0q-.28-4.54-.41-9.06c-.1-3-.16-6-.2-9.05,0-6,0-12,.17-18.09l.43.43c-1.71-.06-3.42-.08-5.13-.17l-2.57-.13L227.38,28c-.22,0-.43-.06-.58.08A2.16,2.16,0,0,0,226.41,28.61Z"/><path class="cls-3" d="M200.66,27.94c2-.26,4.1-.4,6.15-.5,1-.05,2-.07,3.12-.1a1.17,1.17,0,0,1,.74.32,2.35,2.35,0,0,1,.32.43l.39.69.76,1.33c1,1.8,1.94,3.61,2.84,5.45.47.9.87,1.9,1.36,2.72a2.69,2.69,0,0,0,1,1,3.77,3.77,0,0,0,1.44.36,3.52,3.52,0,0,1-1.58,0,3.21,3.21,0,0,1-1.36-.94,27.26,27.26,0,0,1-1.72-2.61C213,34.31,212,32.52,211,30.73l-.73-1.35-.36-.66a1.13,1.13,0,0,0-.13-.19l0,0c-.94,0-2-.05-3-.11C204.77,28.35,202.72,28.21,200.66,27.94Z"/><path class="cls-3" d="M209.12,44.49a69.33,69.33,0,0,1,.64,9.85c0,1.64,0,3.28-.14,4.92s-.24,3.27-.5,4.9a46,46,0,0,1-.5-4.93c-.11-1.64-.13-3.28-.14-4.92A66.2,66.2,0,0,1,209.12,44.49Z"/><path class="cls-3" d="M225.94,40.37A28.91,28.91,0,0,1,223.51,46c-.49.9-1,1.77-1.56,2.63-.28.43-.57.85-.87,1.27a1.75,1.75,0,0,1-.72.6,1.35,1.35,0,0,1-.86-.09,2,2,0,0,0,.63-.33,2.24,2.24,0,0,0,.23-.57c.19-.48.4-1,.62-1.41.44-.92.91-1.82,1.42-2.71A29.3,29.3,0,0,1,225.94,40.37Z"/><path class="cls-7" d="M248,66.08c-1.39,0-2-.61-2-2V28c0-1.39.61-2,2-2H273.8c1.39,0,2,.61,2,2v6.51c0,1.39-.61,2-2,2H258.44v4.28h10.85c1.39,0,2,.61,2,2v6c0,1.39-.61,2-2,2H258.44v4.79H273.8c1.39,0,2,.61,2,2v6.51c0,1.39-.61,2-2,2Z"/><path class="cls-3" d="M247.9,27.94c4.31-.39,8.65-.56,13-.61,2.17,0,4.33,0,6.5,0s4.34.08,6.5.17l.45,0,0,.41c-.06,1.12-.1,2.23-.18,3.35s-.15,2.23-.26,3.33c-.12-1.11-.18-2.22-.27-3.33s-.12-2.22-.18-3.32l.43.43c-2.17.09-4.33.14-6.49.17s-4.32,0-6.48,0C256.56,28.5,252.24,28.34,247.9,27.94Z"/><path class="cls-3" d="M256.52,57.49c2.89-.37,5.79-.52,8.69-.6,1.45,0,2.9,0,4.34,0s2.9,0,4.35.09l.53,0,0,.5c-.1,2.24-.23,4.48-.52,6.69h0c-.3-2.24-.43-4.44-.53-6.65l.51.51c-1.44,0-2.89.09-4.33.1s-2.89,0-4.33,0C262.3,58,259.41,57.86,256.52,57.49Z"/><path class="cls-3" d="M256.52,42.74a53.7,53.7,0,0,1,6.43-.58c2.15-.07,4.3-.08,6.44,0l.56,0v.52c0,1-.1,2.06-.2,3.08s-.2,2.05-.37,3.06c-.18-1-.29-2-.38-3.06s-.15-2-.19-3l.55.54q-3.21.13-6.42,0A51.57,51.57,0,0,1,256.52,42.74Z"/><path class="cls-9" d="M153.21,108.26c-10.23,0-12.73-3.35-12.73-8.34V86c0-5,2.5-8.39,12.73-8.39S165.89,81,165.89,86v14C165.89,104.91,163.44,108.26,153.21,108.26Zm0-7.89c3,0,3.44-.82,3.44-1.93v-11c0-1.07-.45-1.89-3.44-1.89s-3.44.82-3.44,1.89v11C149.77,99.55,150.26,100.37,153.21,100.37Z"/><path class="cls-3" d="M142.4,86a7.4,7.4,0,0,1,.26-2.68,4.49,4.49,0,0,1,1.61-2.21,11.45,11.45,0,0,1,5.16-1.74,33.62,33.62,0,0,1,5.4-.24,20.94,20.94,0,0,1,5.41.79,7.54,7.54,0,0,1,2.49,1.38,4.77,4.77,0,0,1,1.46,2.51,11.34,11.34,0,0,1,.2,2.76c0,.89,0,1.79,0,2.68-.07,3.57-.17,7.14-.37,10.71-.2-3.57-.29-7.14-.37-10.71,0-.89,0-1.79,0-2.68a10.54,10.54,0,0,0-.22-2.55,3.86,3.86,0,0,0-1.22-2,6.61,6.61,0,0,0-2.18-1.16,29.36,29.36,0,0,0-10.43-.73,11.15,11.15,0,0,0-5,1.39,4.16,4.16,0,0,0-1.64,1.92A8.33,8.33,0,0,0,142.4,86Z"/><path class="cls-3" d="M147.85,87.44a77.36,77.36,0,0,1,.48,9.25v1.16a9.86,9.86,0,0,0,0,1.1,2.92,2.92,0,0,0,.78,1.82,7,7,0,0,0,4.09,1.52,6,6,0,0,1-4.61-1,3.59,3.59,0,0,1-1.17-2.27c-.05-.43,0-.83-.05-1.2V96.69A79.5,79.5,0,0,1,147.85,87.44Z"/><path class="cls-9" d="M177.89,107.65a1.93,1.93,0,0,1-2.09-1.35l-4-10a12.19,12.19,0,0,1-1.31-5.81V79.66c0-1,.45-1.47,1.47-1.47h6.51c1,0,1.59.45,1.59,1.47V91a5.16,5.16,0,0,0,.33,1.68l1.93,5.73c.16.53.32.7.77.7h.45c.45,0,.62-.17.78-.7l1.92-5.77a4.91,4.91,0,0,0,.33-1.68V79.66c0-1,.45-1.47,1.47-1.47h6.43c1.06,0,1.47.45,1.47,1.47v10.8a12.19,12.19,0,0,1-1.31,5.81l-4,10a1.92,1.92,0,0,1-2.08,1.35Z"/><path class="cls-3" d="M172.4,80.11q2.86-.26,5.73-.36h.34l0,.37c.11,3.2.14,6.41.1,9.61l0,1.2a6,6,0,0,0,.08,1.12,21.37,21.37,0,0,0,.61,2.27c.44,1.55.85,3.1,1.22,4.66-.64-1.47-1.25-3-1.83-4.45a21,21,0,0,1-.8-2.32,6.88,6.88,0,0,1-.15-1.28l0-1.2c0-3.2,0-6.41.11-9.61l.35.35Q175.27,80.37,172.4,80.11Z"/><path class="cls-3" d="M188.48,80.11c.92-.07,1.85-.12,2.77-.17s1.84-.09,2.76-.12h.27l0,.29c.07,2.21.14,4.43.16,6.64l0,3.33a10.64,10.64,0,0,1-.38,3.42c-.36,1.11-.82,2.09-1.24,3.12s-.88,2-1.32,3c-.88,2-1.79,4.06-2.76,6h-.26l.24,0h0c.69-2.11,1.42-4.21,2.19-6.28s1.59-4.18,2.28-6.2a10.2,10.2,0,0,0,.31-3.15l0-3.33c0-2.21.09-4.43.17-6.64l.28.28c-.92,0-1.84-.06-2.76-.11S189.4,80.18,188.48,80.11Z"/><path class="cls-9" d="M202.44,107.65c-1,0-1.47-.45-1.47-1.47V79.66c0-1,.45-1.47,1.47-1.47h19c1,0,1.47.45,1.47,1.47v4.79c0,1-.45,1.47-1.47,1.47h-11.3v3.15h8c1,0,1.48.45,1.48,1.48v4.37c0,1-.45,1.48-1.48,1.48h-8v3.52h11.3c1,0,1.47.45,1.47,1.47v4.79c0,1-.45,1.47-1.47,1.47Z"/><path class="cls-3" d="M208.21,101.84a57.2,57.2,0,0,1,6.39-.46c2.12,0,4.25,0,6.38.1l.38,0,0,.34c-.07,1.29-.19,2.59-.36,3.89-.18-1.3-.29-2.6-.36-3.89l.36.36q-3.19.17-6.38.1A59.68,59.68,0,0,1,208.21,101.84Z"/><path class="cls-3" d="M208.21,91a32.89,32.89,0,0,1,4.73-.44c1.57,0,3.15,0,4.72,0l.42,0,0,.36a29.84,29.84,0,0,1-.4,3.49,29.81,29.81,0,0,1-.39-3.49l.39.4c-1.57.09-3.15.1-4.72,0A32.91,32.91,0,0,1,208.21,91Z"/><path class="cls-3" d="M202.89,80.11c3-.31,6-.43,9-.47s6,0,9,.17h.32l0,.29c0,.65-.07,1.3-.13,1.94s-.1,1.3-.17,2c-.08-.65-.12-1.3-.17-2s-.1-1.29-.13-1.94l.3.3c-3,.17-6,.2-9,.16S205.9,80.42,202.89,80.11Z"/><path class="cls-9" d="M229.2,107.65c-1,0-1.47-.45-1.47-1.47V79.66c0-1,.45-1.47,1.47-1.47h13.63c6.14,0,8.06,2.78,8.06,6.83V86.9c0,2.29-.57,3.93-2.29,4.67,3,.33,5,2.49,5,5.93v8.68c0,1-.45,1.47-1.47,1.47h-6.35c-1,0-1.47-.45-1.47-1.47V99.92c0-1.23-.41-1.76-1.55-1.76H237v8c0,1-.45,1.47-1.48,1.47ZM237,90.79h3.07c1.43,0,1.8-.82,1.8-1.92V87.48c0-1.11-.37-1.93-1.8-1.93H237Z"/><path class="cls-3" d="M229.65,80.11c2.29-.2,4.58-.29,6.88-.37s4.56-.11,6.89-.1a9.11,9.11,0,0,1,3.52.71,3.78,3.78,0,0,1,2.23,2.92,17.1,17.1,0,0,1,0,3.5,6.91,6.91,0,0,1-.26,1.74,1.66,1.66,0,0,1-1.1,1.29,1.63,1.63,0,0,0,.85-1.35,6.73,6.73,0,0,0,0-1.68,18,18,0,0,0-.28-3.34,3.63,3.63,0,0,0-.67-1.38,3.1,3.1,0,0,0-1.22-.87,8.47,8.47,0,0,0-3.17-.58c-2.26,0-4.58,0-6.86-.12S231.94,80.31,229.65,80.11Z"/><path class="cls-3" d="M235.06,96.24a23.69,23.69,0,0,1,0,9.49,23.69,23.69,0,0,1,0-9.49Z"/><path class="cls-3" d="M244.75,93.08c.74,0,1.48.06,2.21.1s1.45,0,2.25.16a3.4,3.4,0,0,1,2,1.27,4.38,4.38,0,0,1,.82,2.26c.08,1.55,0,3,0,4.45s-.19,2.94-.4,4.41c-.21-1.47-.33-2.94-.4-4.41s-.07-3-.1-4.37a3.9,3.9,0,0,0-.56-1.86,3,3,0,0,0-1.52-1.19,15,15,0,0,0-2.12-.44C246.2,93.34,245.48,93.22,244.75,93.08Z"/><path class="cls-3" d="M235.06,83.63a38.69,38.69,0,0,1,.42,4.54c.07,1.52.06,3,0,4.54l-.44-.44a40.19,40.19,0,0,1,5,.44,38.39,38.39,0,0,1-5,.45h-.43l0-.46c0-1.51-.05-3,0-4.54A36.68,36.68,0,0,1,235.06,83.63Z"/></g></g></svg>